
<svg xmlns="http://www.w3.org/2000/svg" viewBox="0 0 512 512">
  <defs>
    <linearGradient id="grad" x1="0%" y1="0%" x2="0%" y2="100%">
      <stop offset="0%" style="stop-color:#2C2C2C;stop-opacity:1" />
      <stop offset="100%" style="stop-color:#1C1C1E;stop-opacity:1" />
    </linearGradient>
  </defs>
  <rect width="512" height="512" rx="120" fill="url(#grad)"/>
  <path fill="#13ec80" d="M156 100h200c11 0 20 9 20 20v20c0 40-25 75-60 92 35 17 60 52 60 92v20c0 11-9 20-20 20H156c-11 0-20-9-20-20v-20c0-40 25-75 60-92-35-17-60-52-60-92v-20c0-11 9-20 20-20zm30 40v12c0 25 15 48 38 58l12 6c8 4 14 12 14 22s-6 18-14 22l-12 6c-23 10-38 33-38 58v12h140v-12c0-25-15-48-38-58l-12-6c-8-4-14-12-14-22s6-18 14-22l12-6c23-10 38-33 38-58v-12H186z"/>
</svg>
